<?xml version="1.0" encoding="UTF-8" standalone="no"?>
<!DOCTYPE svg PUBLIC "-//W3C//DTD SVG 1.1//EN"
 "http://www.w3.org/Graphics/SVG/1.1/DTD/svg11.dtd">
<!-- Generated by graphviz version 14.1.2 (20260124.0452)
 -->
<!-- Pages: 1 -->
<svg width="611pt" height="215pt"
 viewBox="0.00 0.00 611.00 215.00" xmlns="http://www.w3.org/2000/svg" xmlns:xlink="http://www.w3.org/1999/xlink">
<g id="graph0" class="graph" transform="scale(1 1) rotate(0) translate(4 211)">
<polygon fill="white" stroke="none" points="-4,4 -4,-211 606.75,-211 606.75,4 -4,4"/>
<!-- Persona -->
<g id="node1" class="node">
<title>Persona</title>
<polygon fill="none" stroke="black" points="0,-176.5 0,-207 602.75,-207 602.75,-176.5 0,-176.5"/>
<text xml:space="preserve" text-anchor="start" x="280" y="-186.7" font-family="Times New Roman,serif" font-size="14.00">Persona</text>
<polygon fill="none" stroke="black" points="0,-63.5 0,-176.5 602.75,-176.5 602.75,-63.5 0,-63.5"/>
<text xml:space="preserve" text-anchor="start" x="7" y="-156.2" font-family="Times New Roman,serif" font-size="14.00">+ nombre</text>
<text xml:space="preserve" text-anchor="start" x="7" y="-139.7" font-family="Times New Roman,serif" font-size="14.00">+ apellidos</text>
<text xml:space="preserve" text-anchor="start" x="7" y="-123.2" font-family="Times New Roman,serif" font-size="14.00">+ documento</text>
<text xml:space="preserve" text-anchor="start" x="7" y="-106.7" font-family="Times New Roman,serif" font-size="14.00">+ genero</text>
<text xml:space="preserve" text-anchor="start" x="7" y="-90.2" font-family="Times New Roman,serif" font-size="14.00">+ pais_nacimiento</text>
<text xml:space="preserve" text-anchor="start" x="7" y="-73.7" font-family="Times New Roman,serif" font-size="14.00">+ año_nacimiento</text>
<polygon fill="none" stroke="black" points="0,0 0,-63.5 602.75,-63.5 602.75,0 0,0"/>
<text xml:space="preserve" text-anchor="start" x="7" y="-43.2" font-family="Times New Roman,serif" font-size="14.00">+ Persona(nombre: str, apellidos: str, genero: str, documento: str, pais_nacimiento: str, año_nacimiento: int)</text>
<text xml:space="preserve" text-anchor="start" x="7" y="-26.7" font-family="Times New Roman,serif" font-size="14.00">+ imprimir()</text>
<text xml:space="preserve" text-anchor="start" x="7" y="-10.2" font-family="Times New Roman,serif" font-size="14.00">+ nueva_persona()</text>
</g>
</g>
</svg>
